<svg xmlns="http://www.w3.org/2000/svg" enable-background="new 0 0 24 24" height="48" viewBox="0 0 24 24" width="48" fill="#157eb3"><path  d="m22.844 12.586c-.169-.373-.169-.8 0-1.173l.895-1.968c.333-.733.348-1.58.04-2.324s-.917-1.333-1.67-1.615l-2.025-.76c-.383-.144-.685-.446-.829-.83l-.76-2.024c-.282-.754-.871-1.363-1.615-1.671s-1.591-.294-2.323.04l-1.969.895c-.374.169-.801.168-1.173 0l-1.97-.894c-.733-.334-1.58-.347-2.324-.04-.743.309-1.332.918-1.614 1.671l-.76 2.025c-.144.383-.446.685-.83.829l-2.024.76c-.753.282-1.362.871-1.67 1.615s-.294 1.591.04 2.323l.894 1.969c.169.373.169.8 0 1.173l-.895 1.968c-.333.733-.348 1.58-.04 2.324s.917 1.333 1.67 1.615l2.025.76c.383.144.685.446.829.83l.76 2.024c.282.754.871 1.363 1.615 1.671.356.147.736.221 1.116.221.413 0 .826-.087 1.207-.261l1.969-.894c.373-.17.8-.169 1.173 0l1.968.895c.733.334 1.58.347 2.324.04.744-.308 1.333-.917 1.615-1.67l.76-2.025c.144-.383.446-.685.83-.829l2.024-.76c.754-.282 1.363-.871 1.671-1.615s.294-1.591-.04-2.323zm-8.804 4.305c0 .61-.5 1.11-1.12 1.11h-1.84c-.54 0-1.12-.4-1.12-1.29v-.54h4.08zm.81-2.96c-.42.34-.69.78-.78 1.24h-4.13c-.07-.45-.32-.87-.73-1.19-1.11-.87-1.74-2.18-1.71-3.6.05-2.38 2.04-4.35 4.43-4.38 1.21-.03 2.37.44 3.24 1.3.86.84 1.33 1.97 1.33 3.17 0 1.35-.599 2.61-1.65 3.46z"/></svg>