<svg xmlns="http://www.w3.org/2000/svg" aria-hidden="true" focusable="false" version="1.1" viewBox="0 0 133 50" height="48">
<g fill="none" fill-rule="evenodd">
<g transform="translate(-116 -175)">
<g transform="translate(99 159)">
<g transform="translate(2 2)">
<g transform="translate(15 14)">
<polygon fill="#00864F" points="0 50 133 50 133 0 0 0"></polygon>
<g transform="translate(5.0189 4.1667)">
<g fill="#fff" transform="translate(0 6.6667)">
<path d="m41.374 21.264c-0.32711-0.10882-0.87151-0.23471-1.4525-0.23471-2.0158 0-3.5232 1.3382-3.5232 3.2924 0 1.8635 1.3439 3.3282 3.4683 3.3282 0.54499 0 1.2529-0.12588 1.6527-0.23471h0.018304v-3.2741h-1.0717v2.4418c-0.14525 0.017647-0.39915 0.054706-0.63533 0.054706-1.3805 0-2.3063-1.0494-2.3063-2.3159-0.017714-1.2482 0.96244-2.2435 2.3972-2.2435 0.47177 0 1.0168 0.12706 1.4525 0.27176v-1.0859zm8.8934 0.0017647c-0.32711-0.10882-0.8721-0.23471-1.4531-0.23471-2.0158 0-3.5227 1.3388-3.5227 3.2924 0 1.8635 1.3433 3.3282 3.4683 3.3282 0.5444 0 1.2529-0.12588 1.6521-0.23471h0.018304v-3.2741h-1.0717v2.4418c-0.14525 0.018235-0.39915 0.054706-0.63533 0.054706-1.3799 0-2.3057-1.0494-2.3057-2.3159-0.018304-1.2482 0.96185-2.2429 2.3967-2.2429 0.47177 0 1.0168 0.12647 1.4531 0.27118v-1.0859zm10.659 5.3547c1.2712 0 2.1971-1.0306 2.1971-2.2971 0-1.2482-0.92583-2.2794-2.1971-2.2794-1.2712 0-2.2154 1.0312-2.1971 2.2794 0 1.2665 0.92583 2.2971 2.1971 2.2971zm0-5.6076c1.8706 0 3.3231 1.4653 3.3231 3.3106 0 1.8635-1.4525 3.3282-3.3231 3.3282s-3.3231-1.4647-3.3231-3.3282c0-1.8453 1.4525-3.3106 3.3231-3.3106zm-52.475 1.3547 0.92642 2.4241h-1.8889l0.96244-2.4241zm2.0158 5.1924h1.1803l-2.6694-6.4947h-1.0894l-2.6328 6.4947h1.162l0.68965-1.7735h2.6517l0.70796 1.7735zm23.462-6.4771v4.5053l-3.541-4.5053h-0.99905v6.4771h1.0717v-4.7218l3.7045 4.7218h0.8349v-6.4771h-1.0711zm-31.634 0.99529c0.52669 0 0.99905 0.27176 0.99905 0.81471 0 0.52412-0.39974 0.86765-0.94473 0.86765h-1.2163v-1.6824h1.162zm51.931 0.02c0.65363 0 1.1254 0.28941 1.1254 0.95882 0 0.63353-0.43517 0.95882-1.0711 0.95882h-1.0351v-1.9176h0.98075zm20.139 0.018235c0.70796 0 1.1437 0.41588 1.1437 1.0488 0 0.63412-0.45406 1.0135-1.2169 1.0135h-0.88923v-2.0624h0.96244zm-71.906 2.6212c0.61762 0 1.0351 0.36235 1.0351 0.90471 0 0.57882-0.43635 0.92294-1.2346 0.92294h-1.126v-1.8276h1.3256zm23.934 2.8224h1.1077v-6.4771h-1.1077v6.4771zm-26.392-27.398v14.445h9.145v-2.3806h-6.6769v-12.065h-2.4681zm11.735 0v14.445h9.1456v-2.3806h-6.6769v-12.065h-2.4687zm36.34 0-3.8846 6.6576-4.168-6.6576h-2.8737l5.6253 8.7959-3.4394 5.6494h2.7515l8.7405-14.445h-2.7515zm9.3073 2.34c2.8732 0 4.8966 2.0982 4.8966 4.8824 0 2.7847-2.0235 4.9224-4.8966 4.9224h-2.1445v-9.8047h2.1445zm11.412-1.4929c-1.012 0.72706-1.5387 1.7753-1.5387 3.0265 0 2.4206 1.9024 3.5106 3.845 4.1153 1.7395 0.56529 3.156 1.0094 3.156 2.4212 0 1.3718-1.335 1.9776-2.5897 1.9776-1.6184 0-3.1566-0.64588-4.0877-1.2512l-0.080302-0.04v2.4612h0.040151c0.84966 0.48353 2.428 1.0488 4.1686 1.0488 2.549 0 4.9362-1.6541 4.9362-4.2771 0-2.4212-1.6586-3.5912-3.9655-4.3171-2.3872-0.72706-3.1158-1.2506-3.1158-2.1788 0-1.3318 1.3758-1.7359 2.6305-1.7359 0.9713 0 2.2668 0.24235 3.4394 0.80706h0.040741v-2.3c-1.0929-0.48412-2.2662-0.72588-3.6419-0.72588-1.214 0-2.3878 0.36353-3.2369 0.96824zm-39.659 11.5c2.833 0 4.8966-2.3 4.8966-5.1247 0-2.7841-2.0636-5.0841-4.8966-5.0841-2.7917 0-4.9368 2.3-4.8961 5.0841 0 2.8247 2.0636 5.1247 4.8961 5.1247zm23.674-12.347v14.445h4.5725c4.1279 0 7.4456-3.0665 7.4456-7.2229 0-4.1559-3.3585-7.2224-7.4456-7.2224h-4.5725zm-23.674-0.16118c4.1285 0 7.4055 3.2676 7.4055 7.3835 0 4.1565-3.2369 7.4241-7.4055 7.4241-4.2082 0-7.4049-3.2676-7.4049-7.4241 0-4.1159 3.2776-7.3835 7.4049-7.3835zm40.417 21.085v4.1065c0 0.85059-0.49008 1.4288-1.3988 1.4288-0.87151 0-1.4159-0.57824-1.4159-1.4288v-4.1065h-1.09v4.1424c0 1.4841 0.99905 2.4241 2.5059 2.4241 1.4891 0 2.5065-0.94 2.5065-2.4241v-4.1424h-1.1077zm-45.611-0.002353-2.7061 3.0394v-3.0394h-1.0894v6.4771h1.0894v-3.0935l2.7604 3.0935h1.4708l-2.9966-3.3106 2.8513-3.1665h-1.3799zm48.407 0.002353v6.4765h1.0534v-2.3153h0.94414c1.289 0 2.2697-0.79647 2.2697-2.0988 0-1.2482-0.92583-2.0624-2.1971-2.0624h-2.0701zm-55.163-0.002353v4.5053l-3.541-4.5053h-0.99846v6.4771h1.0888v-4.7218l3.6868 4.7218h0.83549v-6.4771h-1.0717zm34.97 0.002353v6.4765h1.0894v-2.5506h0.88982l1.4165 2.5506h1.2346l-1.5612-2.7135c0.76228-0.28941 1.2346-0.97647 1.2346-1.7912 0-1.2847-0.88982-1.9718-2.1794-1.9718h-2.1245zm-52.112-0.002353v6.4771h2.2697c1.2712 0 2.3063-0.56059 2.3063-1.8812 0-0.67-0.34542-1.2124-0.96244-1.5741 0.38143-0.19941 0.72626-0.68765 0.72626-1.2841 0-1.14-0.88982-1.7376-1.9975-1.7376h-2.3423z"></path>
</g>
<g transform="translate(81.975)">
<polygon fill="#fff" points="0 41.666 41.824 41.666 41.824 0 0 0"></polygon>
<g transform="translate(4.1824 5.8333)">
<path d="m32.833 15.516c0.64773 0.47294 1.3173 0.81765 1.3173 1.57 0 0.21765-0.28106 0.43353-0.90694 0.43353-0.47473 0-0.99315-0.12941-1.2305-0.47588-0.19426-0.25882 0.086206-0.60353-0.086206-0.86059-0.1299-0.21529-0.43221-0.10824-0.62706-0.21529-0.23677-0.12941-0.25803-0.23706-0.41037-0.56-0.17182-0.38706-0.75578-1.0324-1.4466-1.7206-0.58278-0.58118-1.2093-0.88176-1.4897-0.86059-0.19721 0.021176-0.26098 0.021176-0.45524 0.021176-0.49775 0-0.92997 0.47412-1.6421 0.77471-0.49598 0.21471-0.77763 0.34412-1.1012 0.38765l-0.10746 0.12882 0.64714-0.021176c0.60404 0 1.4041-0.085882 2.0081-0.085882 0.62883 0 0.93115 0.55882 1.1691 1.1394 0.47532 1.1841 1.188 2.8853 2.0306 4.3047 0.40919 0.66706 0.75519 1.0982 0.75519 1.9188 0 0.25882-0.021847 0.60294-0.36785 0.60294-0.47473 0-1.684-0.49471-1.684-1.0347 0-0.41059 0.32416-0.58235 0.32416-0.99176 0-0.25765-0.38852-0.21471-0.47473-0.45118-0.3029-1.2694-0.67017-2.52-1.3846-3.2729-0.36785-0.38706-0.41037-0.55941-0.77704-0.55941-0.19485 0-0.3897 0.042941-0.5627 0.10824-0.99255 0.36588-2.3099 1.4647-3.9513 1.96-0.62588 0.19353-0.73394-0.17176-1.3817-0.042941h0.043103c-0.52078 0.10706-0.93174 0.40824-1.6438 0.60235-0.99315 0.27941-2.6996 0.40824-4.06 0.23647-0.9713-0.12941-2.2266-0.32235-2.7663-0.30118-0.41037 1.1829-1.2955 2.7335-2.5915 3.3382-0.69024 0.30059-0.90694 0.73059-0.69024 1.5041 0.25862 0.96706 1.1225 1.6788 1.5753 2.4965 0.41096 0.70824 1.0799 1.8288 1.7926 2.1947 0.71268 0.36529 1.1473 0.90235 1.1473 1.3535 0 0.21471-0.089159 0.34412-0.30467 0.34412h-1.4248c-0.2167 0-0.32475-0.12941-0.36844-0.21529-0.19367-0.36529-0.06436-0.70882-0.32239-1.0318-0.19544-0.23588-0.3466-0.17176-0.58337-0.36471-0.43221-0.40824-0.10864-0.64529-0.43221-1.1641-0.90694-1.4182-1.296-1.7618-2.0512-2.7747-0.43162-0.53706-0.95063-0.79588-0.95063-1.5047 0-0.85941 0.86384-1.01 0.84258-1.8741-0.56152 0.41059-1.2098 0.73294-2.2053 0.86412-0.1299 0.021176-0.47591 0.27941-0.62647 0.45118-0.34542 0.34412-0.47473 0.68824-0.51842 1.2041-0.10805 1.1624-0.34424 2.3453-0.19426 3.5053 0.19426 0.75529 0.32416 1.0129 0.95004 1.4218 0.38911 0.25706 0.84317 0.62294 0.88568 1.16 0 0.15059-0.042513 0.32294-0.25921 0.32294h-1.5334c-0.15057 0-0.27988-0.10765-0.32416-0.19412-0.173-0.30059-0.06436-0.51529-0.12872-0.85941-0.15175-0.70882-0.95063-0.66647-0.95063-1.3971 0-0.21765 0.12931-0.49765 0.15116-0.94824 0.043103-0.98824 0.34542-2.5818 0.043103-4.5159-0.12931-1.1224 1.0368-1.1641 1.6415-2.1547 0.36667-0.56 0.25921-0.32294 0.47473-0.73176 0.21611-0.43 0.17359-0.73118 0.15175-0.98941 0-0.32294-0.32416-1.0135-0.10805-2.4118 0.086797-0.62471 0.38793-1.2476 0.79948-1.7859 0-0.021765 0-0.10706-0.13049-0.10706-0.60463 0.042941-0.60463-0.10824-1.015-0.10824-0.38852 0-0.69083 0.32294-0.75519 0.49471-0.19485-0.085882-0.28047-0.30118-0.28047-0.43 0-0.21588 0.042513-0.40882 0.25862-0.62412 0.086206-0.085294 0-0.12882-0.10746-0.12882-0.47591 0-0.92938 0.58059-1.0374 0.98882-0.28047-0.042353-0.30172-0.40824-0.43162-0.40824-0.12931 0-0.21611 0.19471-0.21611 0.38765 0 1.3771 2.2461 1.6776 2.2461 3.4853 0 2.0888-2.5271 1.6576-2.5271 2.4112 0 0.15176 0.10864 0.28 0.30349 0.36588-0.086797 0.19353-0.30349 0.27941-0.54027 0.27941-0.56152 0-0.97248-0.40706-0.97248-0.96765 0-1.1406 1.5328-1.1618 1.5328-2.0247 0-0.40882-0.25803-0.53824-0.49598-0.73118-1.4679-1.0335-2.2886-2.0659-2.2886-3.7647 0-1.8288 1.2736-3.23 2.9369-3.23 2.4179 0 2.4835 2.7776 4.6882 3.0147 0.82014-0.55941 1.7926-0.88235 2.7427-0.88235 1.4248 0 2.0507 0.36588 3.5646 0.36588 0.60581 0 1.6208-0.17235 2.8295-0.98941 0.45347-0.30118 0.64773-0.36471 1.0575-0.73235 0.95063-0.81882 1.8363-2.4112 1.8363-3.5512v0.064118c0-0.36529-0.086797-0.58059-0.25921-0.58059-0.51842 0-0.97189 0.47353-1.4903 0.96882-0.32416 0.34353 0.17241 0.49412-0.56152 0.90294-0.25921 0.12941-0.56093-0.10765-0.84199-0.10765-0.58337 0-0.84199-0.68765-0.84199-1.2906 0-0.30118 0.23736-0.38765 0.36667-0.66706 0.30349-0.58118 0.28106-0.79588 0.56152-1.3765 0.173-0.38882 0.47591-0.64588 0.45406-0.92588 0-0.10647-0.086206-0.17235-0.086206-0.27941 0-0.58353 0.77763-0.97059 0.77763-1.5512 0-0.32235-0.36785-0.47353-0.45406-0.73118-0.086797-0.25824-0.021256-0.32294-0.021256-0.32294 0.021256-0.043529 0.06436-0.064706 0.10746-0.064706 0.3029 0 0.4328 0.32294 0.71209 0.49471 0.022437-0.38706-0.10687-0.47353-0.10687-0.75294 0-0.15059-0.021847-0.38706 0.12931-0.38706 0.19426 0 0.17241 0.25824 0.34542 0.38706 0.21611 0.17176 0.41037 0.15118 0.64773 0.30118 0.30231 0.19412 0.47473 0.51647 0.58278 0.53765 0.30231 0.042941 0.38852-0.32294 0.23795-0.53765 0.34483-0.021765 0.69083 0.25824 1.1467 0.25824 0.71268 0 0.95063 0.19353 1.0799 0.30059 0.45406 0.38765 0.54027 0.68882 1.0362 0.68882 0.25921 0 0.38911-0.21529 0.45406-0.30118 0.34542 0.25824 0.36726 0.90353 0 1.4412 0.15057 0.45529 0.7983 0.49765 1.1012 0.71235 0.30231 0.21529 0.25921 0.32294 0.47473 0.45235 0.173 0.10824 0.32416 0.086471 0.45347 0 0.15175 0.60176-0.36726 1.1406-0.99256 1.2253 0.021256 0.77471 0.84199 1.2482 1.2087 1.4418-0.21611 0.47412-0.60522 0.62412-0.95004 0.71 0.10805 0.47412 0.62588 1.1624 0.36667 1.7853-0.23736-0.10647-0.58219 0-0.58219 0.34412 0 0.38824 0.49598 0.58471-0.021847 0.86353-0.23795 0.12941-0.28165 0.47353 0.15057 0.79647 0.56211-0.15059 1.1012-0.12941 1.7271-0.12941 0.3897 0 0.90812-0.10765 1.2529-0.10765 0.65068 0 1.0392 0.25824 1.5145 0.77529 1.188 1.2894 2.2673 2.6453 3.4979 3.5706" fill="#231F20"></path>
<path d="m0.77763 12.074c0.25921 0 0.73453-1.42 1.7058-1.42 0.28106 0 0.34542 0.10824 0.34542 0.21471 0 0.19412-0.32357 0.36647-0.32357 0.62471 0 0.042941 0.021256 0.10706 0.10746 0.10706 0.23795 0 0.41096-0.51647 1.3817-0.51647 0.2598 0 0.47532 0.021765 0.71268 0.086471 0.10805 0.021765 0.32416 0.12941 0.23795-0.17176-0.23795-0.66706-0.97189-1.2941-2.0081-1.2941-1.0368 0-2.1162 0.92882-2.2461 2.0465-0.021847 0.19412-0.021847 0.32294 0.086797 0.32294" fill="#6D6E70"></path>
<path d="m18.705 3.2078c-0.28106-0.11-0.32357-0.26059-0.23677-0.60471 0.06436-0.36529 0.085616-0.51588-0.086797-0.55941-0.15175-0.043529-0.34601 0.043529-0.53968 0.25824-0.173 0.23588-0.45465 0.51647-0.54027 0.75235-0.086206 0.30412 0.28047 0.26118 0.021847 0.75588-0.45406 0.81706-0.56211 0.98941-0.77822 1.5706-0.19367 0.60235-0.34483 0.68824-0.45288 0.88176-0.1299 0.17235 0.173 0.19412 0.51842 0.087059 0.36726-0.13059 0.38852 0.30059 0.25862 0.60118-0.10805 0.21588-0.021847 0.30118 0.28106 0.065882 0.28047-0.21647-0.15116-0.38824-0.043103-1.0765 0.10805-0.62412 0.23677-0.96824 0.62647-1.5918 0.32357-0.53824 0.60463-0.92588 1.1656-0.73176 0.21552 0.10765 0.10864-0.27941-0.19426-0.40882" fill="#6D6E70"></path>
<path d="m30.717 21.481c0.10805 0 0.12931-0.15118 0.12931-0.28176 0-0.30059-0.173-0.75471-0.40978-0.94824-0.06495 0.45353-0.28106 0.75412-0.28106 0.94824 0 0.15294 0.41037 0.28176 0.56152 0.28176" fill="#6D6E70"></path>
<path d="m33.394 17.151c0.173 0 0.43221-0.065294 0.43221-0.19412 0-0.25882-0.38852-0.71-0.73394-0.81765 0.23736 0.45118 0 1.0118 0.30172 1.0118" fill="#6D6E70"></path>
<path d="m21.537 11.278c2.4404 1.1188 2.2886 3.1624 2.5053 2.6453 0.086797-0.21471 0.40978-1.2253-0.45406-2.1935-0.66958-0.77471-0.9282-0.58118-0.66958-1.2253 1.0587-2.5635 1.7283-6.4359-1.4466-7.7935-0.36726-0.15059-0.67194-0.15059-0.67194-0.085882 0 0.063529 0.34778 0.17235 0.75873 0.45118 2.1162 1.4006 1.4679 5.2088-0.47532 7.0594-0.65009 0.62647-0.34778 0.77706 0.45347 1.1424" fill="#6D6E70"></path>
<path d="m13.196 29.116c0.173 0 0.086206-0.25706 0.021256-0.36529-0.15057-0.25765-0.43103-0.43-0.66958-0.53706 0.06495 0.25765 0.086797 0.90235 0.3466 0.90235h0.30172z" fill="#6D6E70"></path>
<path d="m5.8302 29.116c0.17241 0 0.043103-0.25706-0.021256-0.36529-0.15116-0.25765-0.45406-0.40765-0.69201-0.51588 0.065541 0.25824 0.10923 0.88118 0.36785 0.88118h0.34542z" fill="#6D6E70"></path>
<path d="m14.753 14.547c1.3397-0.15059 1.5553-0.45118 1.7926-1.4624 0.10805-0.47294 0.45347-0.96882 0.75578-1.2912 0.19426-0.21529 0.38911-0.38706 0.58278-0.71 0.06554-0.12882 0.10805-0.23647 0-0.19353-0.15057 0.10824-0.60463 0.40941-0.79889 0.55941-0.95004 0.66647-2.3978 0.98941-2.9794 0.98941-1.2341 0-2.2921-0.36529-3.4146-0.36529-3.368 0-4.6244 2.6253-4.4509 4.1524 0.021847 0.23647 0.06436 0.25765 0.15116 0.25765 0.23795 0 0.43457-0.90353 1.2766-1.6994 1.2311-1.1618 2.5703-1.8288 4.4703-1.8288 1.3823 0 1.9455 0.45235 1.9455 0.62353 0 0.34353-0.58514 0.36647-0.54204 0.71059 0 0.10706 0.32593 0.36529 1.211 0.25765" fill="#6D6E70"></path>
</g>
</g>
</g>
</g>
</g>
</g>
</g>
</g>
</svg>