<svg xmlns="http://www.w3.org/2000/svg" xmlns:xlink="http://www.w3.org/1999/xlink" width="99.3pt" height="93.4pt" viewBox="0 0 99.3 93.4" version="1.1">

<g id="surface1">
<path style="fill:none;stroke-width:14.173;stroke-linecap:butt;stroke-linejoin:miter;stroke:rgb(61.131287%,6.665039%,8.616638%);stroke-opacity:1;stroke-miterlimit:4;" d="M 493.164063 715.445313 C 628.554688 715.445313 738.320313 603.335938 738.320313 465.015625 C 738.320313 326.734375 628.554688 214.625 493.164063 214.625 C 357.773438 214.625 248.046875 326.734375 248.046875 465.015625 C 248.046875 603.335938 357.773438 715.445313 493.164063 715.445313 Z M 493.164063 715.445313 " transform="matrix(0.1,0,0,-0.1,0,93.4)"/>
<g clip-path="url(#clip1)" clip-rule="nonzero">
<path style="fill:none;stroke-width:14.173;stroke-linecap:butt;stroke-linejoin:miter;stroke:rgb(61.131287%,6.665039%,8.616638%);stroke-opacity:1;stroke-miterlimit:4;" d="M 821.40625 604.976563 C 833.515625 575.835938 841.914063 544.742188 846.015625 512.320313 L 917.65625 512.476563 L 952.226563 491.148438 L 952.226563 442.515625 L 917.539063 422.28125 L 846.171875 422.28125 C 842.1875 389.859375 833.945313 358.765625 821.953125 329.625 L 883.085938 294.234375 L 902.382813 258.492188 L 878.046875 216.382813 L 835.859375 217.359375 L 777.421875 251.03125 C 757.96875 225.015625 735.078125 201.734375 709.453125 181.890625 L 744.023438 122.554688 L 742.851563 81.929688 L 700.78125 57.632813 L 665.898438 77.554688 L 631.796875 136.1875 C 602.265625 123.53125 570.664063 114.742188 537.65625 110.523438 L 537.773438 43.375 L 516.445313 8.804688 L 467.8125 8.804688 L 447.578125 43.492188 L 447.539063 110.445313 C 414.414063 114.625 382.734375 123.335938 353.125 135.992188 L 319.570313 77.945313 L 283.789063 58.648438 L 241.679688 82.984375 L 241.484375 123.140625 L 275.429688 181.617188 C 249.6875 201.460938 226.71875 224.820313 207.1875 250.875 L 147.851563 217.007813 L 107.226563 218.179688 L 82.929688 260.289063 L 102.851563 295.171875 L 162.1875 329.429688 C 150.117188 358.84375 142.148438 390.484375 138.28125 423.21875 L 68.671875 423.257813 L 34.140625 444.585938 L 34.140625 493.21875 L 68.789063 513.453125 L 138.789063 513.21875 C 143.125 545.914063 152.03125 577.203125 164.335938 606.578125 L 104.921875 640.875 L 83.945313 677.242188 L 108.320313 719.351563 L 148.4375 719.546875 L 208.867188 684.585938 C 228.4375 710.328125 251.40625 733.335938 277.109375 752.90625 L 242.304688 813.179688 L 243.476563 853.804688 L 285.585938 878.101563 L 320.46875 858.179688 L 354.921875 798.023438 C 384.296875 810.367188 415.664063 818.882813 448.398438 822.90625 L 448.554688 892.359375 L 469.882813 926.929688 L 518.515625 926.929688 L 538.789063 892.242188 L 538.710938 822.59375 C 571.210938 818.335938 602.304688 809.664063 631.445313 797.242188 L 666.796875 857.789063 L 702.539063 877.085938 L 744.648438 852.75 L 744.84375 812.59375 L 709.570313 751.304688 C 734.882813 731.65625 757.539063 708.648438 776.875 682.945313 L 838.476563 718.726563 L 879.101563 717.554688 L 903.398438 675.445313 L 883.476563 640.5625 Z M 821.40625 604.976563 " transform="matrix(0.1,0,0,-0.1,0,93.4)"/>
</g>
<path style=" stroke:none;fill-rule:evenodd;fill:rgb(100%,100%,100%);fill-opacity:1;" d="M 0.765625 92.644531 L 98.679688 92.644531 L 98.679688 79.816406 L 0.765625 79.816406 Z M 0.765625 92.644531 "/>
<g clip-path="url(#clip2)" clip-rule="nonzero">
<path style="fill:none;stroke-width:14.173;stroke-linecap:butt;stroke-linejoin:miter;stroke:rgb(61.131287%,6.665039%,8.616638%);stroke-opacity:1;stroke-miterlimit:4;" d="M 7.65625 7.554688 L 986.796875 7.554688 L 986.796875 135.835938 L 7.65625 135.835938 Z M 7.65625 7.554688 " transform="matrix(0.1,0,0,-0.1,0,93.4)"/>
</g>
<path style=" stroke:none;fill-rule:evenodd;fill:rgb(61.131287%,6.665039%,8.616638%);fill-opacity:1;" d="M 73.734375 43.621094 C 73.964844 46.675781 73.621094 49.539063 72.660156 52.105469 L 25.589844 52.105469 C 24.890625 49.261719 24.730469 46.445313 24.886719 43.636719 L 73.734375 43.621094 C 73.4375 40.996094 72.929688 38.925781 72.320313 37.132813 L 65.691406 41.867188 L 65.671875 35.589844 L 55.648438 41.699219 L 55.738281 35.453125 L 45.628906 41.746094 L 45.609375 35.589844 L 35.195313 41.667969 L 35.945313 35.71875 L 24.886719 43.636719 Z M 73.734375 43.621094 "/>
<path style="fill:none;stroke-width:14.173;stroke-linecap:butt;stroke-linejoin:miter;stroke:rgb(100%,100%,100%);stroke-opacity:1;stroke-dasharray:20,10,20,10;stroke-miterlimit:4;" d="M 249.101563 467.710938 L 736.796875 467.945313 " transform="matrix(0.1,0,0,-0.1,0,93.4)"/>
<path style=" stroke:none;fill-rule:evenodd;fill:rgb(61.131287%,6.665039%,8.616638%);fill-opacity:1;" d="M 55.753906 29.933594 C 56.425781 30.039063 57.097656 30.046875 57.769531 29.933594 L 58.378906 41.703125 L 54.828125 41.65625 Z M 55.753906 29.933594 "/>
<path style=" stroke:none;fill-rule:evenodd;fill:rgb(61.131287%,6.665039%,8.616638%);fill-opacity:1;" d="M 56.851563 29.875 C 60.425781 27.871094 68.148438 27.195313 58.308594 23.878906 C 57.542969 25.667969 55.015625 30.910156 56.851563 29.875 Z M 56.851563 29.875 "/>
<path style=" stroke:none;fill-rule:evenodd;fill:rgb(61.131287%,6.665039%,8.616638%);fill-opacity:1;" d="M 5.957031 89.152344 L 5.957031 84.113281 L 7.089844 84.113281 C 7.523438 84.113281 7.800781 84.140625 7.933594 84.191406 C 8.132813 84.265625 8.300781 84.429688 8.4375 84.683594 C 8.574219 84.9375 8.640625 85.265625 8.640625 85.664063 C 8.640625 85.976563 8.601563 86.234375 8.523438 86.445313 C 8.445313 86.65625 8.347656 86.820313 8.226563 86.941406 C 8.105469 87.0625 7.984375 87.140625 7.859375 87.179688 C 7.691406 87.230469 7.445313 87.253906 7.125 87.253906 L 6.667969 87.253906 L 6.667969 89.152344 Z M 6.667969 84.964844 L 6.667969 86.402344 L 7.050781 86.402344 C 7.332031 86.402344 7.515625 86.375 7.609375 86.324219 C 7.707031 86.269531 7.777344 86.1875 7.832031 86.074219 C 7.882813 85.960938 7.914063 85.832031 7.914063 85.679688 C 7.914063 85.496094 7.875 85.34375 7.796875 85.226563 C 7.722656 85.105469 7.628906 85.03125 7.515625 85 C 7.429688 84.976563 7.261719 84.964844 7.007813 84.964844 Z M 9.222656 89.152344 L 9.222656 84.113281 L 10.714844 84.113281 C 11.089844 84.113281 11.363281 84.160156 11.53125 84.25 C 11.707031 84.339844 11.839844 84.503906 11.941406 84.734375 C 12.042969 84.964844 12.09375 85.230469 12.09375 85.527344 C 12.09375 85.90625 12.015625 86.21875 11.863281 86.464844 C 11.710938 86.710938 11.476563 86.867188 11.171875 86.929688 C 11.328125 87.058594 11.453125 87.199219 11.546875 87.351563 C 11.648438 87.507813 11.78125 87.777344 11.953125 88.171875 L 12.378906 89.152344 L 11.53125 89.152344 L 11.023438 88.054688 C 10.839844 87.664063 10.714844 87.417969 10.648438 87.316406 C 10.585938 87.214844 10.511719 87.144531 10.433594 87.105469 C 10.359375 87.070313 10.242188 87.050781 10.082031 87.050781 L 9.933594 87.050781 L 9.933594 89.152344 Z M 9.933594 86.246094 L 10.460938 86.246094 C 10.796875 86.246094 11.007813 86.226563 11.09375 86.183594 C 11.175781 86.144531 11.246094 86.074219 11.292969 85.972656 C 11.339844 85.871094 11.363281 85.742188 11.363281 85.59375 C 11.363281 85.421875 11.335938 85.285156 11.269531 85.179688 C 11.210938 85.078125 11.117188 85.011719 11.003906 84.984375 C 10.945313 84.972656 10.773438 84.964844 10.484375 84.964844 L 9.933594 84.964844 Z M 12.613281 86.664063 C 12.613281 86.152344 12.667969 85.71875 12.773438 85.371094 C 12.855469 85.113281 12.964844 84.882813 13.101563 84.679688 C 13.238281 84.472656 13.390625 84.324219 13.554688 84.222656 C 13.773438 84.089844 14.023438 84.023438 14.3125 84.023438 C 14.832031 84.023438 15.242188 84.253906 15.554688 84.714844 C 15.863281 85.179688 16.019531 85.820313 16.019531 86.640625 C 16.019531 87.457031 15.863281 88.09375 15.554688 88.554688 C 15.253906 89.015625 14.839844 89.246094 14.320313 89.246094 C 13.800781 89.246094 13.382813 89.015625 13.078125 88.558594 C 12.769531 88.101563 12.613281 87.46875 12.613281 86.664063 Z M 13.34375 86.628906 C 13.34375 87.203125 13.4375 87.636719 13.621094 87.929688 C 13.804688 88.226563 14.035156 88.371094 14.320313 88.371094 C 14.601563 88.371094 14.839844 88.226563 15.015625 87.933594 C 15.203125 87.640625 15.289063 87.203125 15.289063 86.617188 C 15.289063 86.039063 15.203125 85.605469 15.023438 85.324219 C 14.847656 85.039063 14.613281 84.894531 14.320313 84.894531 C 14.027344 84.894531 13.792969 85.039063 13.613281 85.328125 C 13.433594 85.617188 13.34375 86.050781 13.34375 86.628906 Z M 18.207031 87.304688 L 18.207031 86.453125 L 19.726563 86.453125 L 19.726563 88.460938 C 19.582031 88.667969 19.363281 88.851563 19.085938 89.007813 C 18.800781 89.167969 18.515625 89.246094 18.226563 89.246094 C 17.859375 89.246094 17.542969 89.136719 17.269531 88.914063 C 16.996094 88.691406 16.792969 88.375 16.65625 87.960938 C 16.515625 87.550781 16.453125 87.101563 16.453125 86.617188 C 16.453125 86.089844 16.527344 85.625 16.679688 85.214844 C 16.835938 84.808594 17.054688 84.492188 17.351563 84.273438 C 17.578125 84.105469 17.855469 84.023438 18.191406 84.023438 C 18.628906 84.023438 18.964844 84.15625 19.214844 84.417969 C 19.457031 84.683594 19.613281 85.042969 19.683594 85.507813 L 18.976563 85.699219 C 18.929688 85.449219 18.839844 85.253906 18.703125 85.109375 C 18.5625 84.96875 18.394531 84.894531 18.1875 84.894531 C 17.878906 84.894531 17.632813 85.035156 17.457031 85.320313 C 17.269531 85.601563 17.179688 86.019531 17.179688 86.574219 C 17.179688 87.175781 17.269531 87.625 17.460938 87.921875 C 17.640625 88.222656 17.882813 88.371094 18.183594 88.371094 C 18.332031 88.371094 18.480469 88.332031 18.628906 88.246094 C 18.777344 88.164063 18.902344 88.0625 19.011719 87.941406 L 19.011719 87.304688 Z M 20.382813 89.152344 L 20.382813 84.113281 L 21.878906 84.113281 C 22.253906 84.113281 22.519531 84.160156 22.691406 84.25 C 22.863281 84.339844 22.996094 84.503906 23.097656 84.734375 C 23.207031 84.964844 23.253906 85.230469 23.253906 85.527344 C 23.253906 85.90625 23.175781 86.21875 23.023438 86.464844 C 22.867188 86.710938 22.636719 86.867188 22.332031 86.929688 C 22.484375 87.058594 22.609375 87.199219 22.710938 87.351563 C 22.808594 87.507813 22.941406 87.777344 23.109375 88.171875 L 23.535156 89.152344 L 22.691406 89.152344 L 22.183594 88.054688 C 22.003906 87.664063 21.878906 87.417969 21.808594 87.316406 C 21.742188 87.214844 21.667969 87.144531 21.59375 87.105469 C 21.519531 87.070313 21.398438 87.050781 21.234375 87.050781 L 21.09375 87.050781 L 21.09375 89.152344 Z M 21.09375 86.246094 L 21.617188 86.246094 C 21.960938 86.246094 22.167969 86.226563 22.253906 86.183594 C 22.339844 86.144531 22.402344 86.074219 22.453125 85.972656 C 22.503906 85.871094 22.523438 85.742188 22.523438 85.59375 C 22.523438 85.421875 22.492188 85.285156 22.429688 85.179688 C 22.363281 85.078125 22.277344 85.011719 22.160156 84.984375 C 22.105469 84.972656 21.933594 84.964844 21.644531 84.964844 L 21.09375 84.964844 Z M 23.921875 89.152344 L 23.921875 84.113281 L 26.515625 84.113281 L 26.515625 84.964844 L 24.628906 84.964844 L 24.628906 86.085938 L 26.382813 86.085938 L 26.382813 86.9375 L 24.628906 86.9375 L 24.628906 88.300781 L 26.589844 88.300781 L 26.589844 89.152344 Z M 27.003906 87.519531 L 27.691406 87.421875 C 27.734375 87.753906 27.816406 87.996094 27.945313 88.152344 C 28.070313 88.308594 28.242188 88.386719 28.460938 88.386719 C 28.683594 88.386719 28.855469 88.316406 28.96875 88.179688 C 29.089844 88.039063 29.140625 87.878906 29.140625 87.695313 C 29.140625 87.574219 29.117188 87.472656 29.070313 87.386719 C 29.019531 87.304688 28.9375 87.234375 28.816406 87.171875 C 28.734375 87.128906 28.546875 87.054688 28.253906 86.949219 C 27.878906 86.816406 27.609375 86.648438 27.457031 86.449219 C 27.242188 86.171875 27.132813 85.832031 27.132813 85.433594 C 27.132813 85.175781 27.183594 84.933594 27.285156 84.710938 C 27.386719 84.488281 27.53125 84.316406 27.722656 84.199219 C 27.910156 84.082031 28.140625 84.023438 28.410156 84.023438 C 28.847656 84.023438 29.179688 84.164063 29.398438 84.445313 C 29.621094 84.722656 29.738281 85.097656 29.753906 85.566406 L 29.039063 85.601563 C 29.007813 85.339844 28.945313 85.152344 28.847656 85.039063 C 28.746094 84.925781 28.597656 84.867188 28.402344 84.867188 C 28.195313 84.867188 28.035156 84.929688 27.921875 85.050781 C 27.847656 85.128906 27.808594 85.234375 27.808594 85.367188 C 27.808594 85.484375 27.84375 85.585938 27.914063 85.671875 C 28.003906 85.78125 28.21875 85.894531 28.5625 86.011719 C 28.90625 86.125 29.160156 86.25 29.328125 86.371094 C 29.492188 86.5 29.621094 86.667969 29.714844 86.886719 C 29.804688 87.101563 29.851563 87.371094 29.851563 87.6875 C 29.851563 87.976563 29.796875 88.246094 29.683594 88.5 C 29.578125 88.75 29.414063 88.9375 29.214844 89.0625 C 29.007813 89.183594 28.753906 89.246094 28.453125 89.246094 C 28.003906 89.246094 27.664063 89.097656 27.425781 88.804688 C 27.1875 88.511719 27.046875 88.082031 27.003906 87.519531 Z M 30.269531 87.519531 L 30.964844 87.421875 C 31.003906 87.753906 31.089844 87.996094 31.214844 88.152344 C 31.339844 88.308594 31.507813 88.386719 31.722656 88.386719 C 31.953125 88.386719 32.121094 88.316406 32.238281 88.179688 C 32.351563 88.039063 32.410156 87.878906 32.410156 87.695313 C 32.410156 87.574219 32.386719 87.472656 32.339844 87.386719 C 32.289063 87.304688 32.207031 87.234375 32.085938 87.171875 C 32.003906 87.128906 31.8125 87.054688 31.519531 86.949219 C 31.140625 86.816406 30.878906 86.648438 30.722656 86.449219 C 30.507813 86.171875 30.402344 85.832031 30.402344 85.433594 C 30.402344 85.175781 30.457031 84.933594 30.550781 84.710938 C 30.652344 84.488281 30.796875 84.316406 30.988281 84.199219 C 31.179688 84.082031 31.40625 84.023438 31.675781 84.023438 C 32.117188 84.023438 32.445313 84.164063 32.667969 84.445313 C 32.890625 84.722656 33.003906 85.097656 33.015625 85.566406 L 32.308594 85.601563 C 32.277344 85.339844 32.214844 85.152344 32.113281 85.039063 C 32.015625 84.925781 31.867188 84.867188 31.667969 84.867188 C 31.464844 84.867188 31.304688 84.929688 31.1875 85.050781 C 31.113281 85.128906 31.082031 85.234375 31.082031 85.367188 C 31.082031 85.484375 31.113281 85.585938 31.183594 85.671875 C 31.273438 85.78125 31.488281 85.894531 31.835938 86.011719 C 32.175781 86.125 32.429688 86.25 32.59375 86.371094 C 32.757813 86.5 32.886719 86.667969 32.980469 86.886719 C 33.078125 87.101563 33.121094 87.371094 33.121094 87.6875 C 33.121094 87.976563 33.066406 88.246094 32.957031 88.5 C 32.839844 88.75 32.683594 88.9375 32.480469 89.0625 C 32.273438 89.183594 32.019531 89.246094 31.714844 89.246094 C 31.273438 89.246094 30.933594 89.097656 30.695313 88.804688 C 30.460938 88.511719 30.316406 88.082031 30.269531 87.519531 Z M 35.871094 89.152344 L 35.871094 84.964844 L 34.835938 84.964844 L 34.835938 84.113281 L 37.617188 84.113281 L 37.617188 84.964844 L 36.585938 84.964844 L 36.585938 89.152344 Z M 38.078125 89.152344 L 38.078125 84.113281 L 38.785156 84.113281 L 38.785156 86.097656 L 40.167969 86.097656 L 40.167969 84.113281 L 40.878906 84.113281 L 40.878906 89.152344 L 40.167969 89.152344 L 40.167969 86.949219 L 38.785156 86.949219 L 38.785156 89.152344 Z M 41.613281 89.152344 L 41.613281 84.113281 L 43.105469 84.113281 C 43.480469 84.113281 43.753906 84.160156 43.921875 84.25 C 44.09375 84.339844 44.230469 84.503906 44.335938 84.734375 C 44.433594 84.964844 44.484375 85.230469 44.484375 85.527344 C 44.484375 85.90625 44.40625 86.21875 44.253906 86.464844 C 44.097656 86.710938 43.867188 86.867188 43.5625 86.929688 C 43.714844 87.058594 43.839844 87.199219 43.9375 87.351563 C 44.039063 87.507813 44.171875 87.777344 44.339844 88.171875 L 44.769531 89.152344 L 43.921875 89.152344 L 43.414063 88.054688 C 43.230469 87.664063 43.105469 87.417969 43.039063 87.316406 C 42.972656 87.214844 42.902344 87.144531 42.828125 87.105469 C 42.753906 87.070313 42.632813 87.050781 42.46875 87.050781 L 42.328125 87.050781 L 42.328125 89.152344 Z M 42.328125 86.246094 L 42.847656 86.246094 C 43.1875 86.246094 43.398438 86.226563 43.484375 86.183594 C 43.566406 86.144531 43.636719 86.074219 43.683594 85.972656 C 43.730469 85.871094 43.753906 85.742188 43.753906 85.59375 C 43.753906 85.421875 43.722656 85.285156 43.660156 85.179688 C 43.597656 85.078125 43.507813 85.011719 43.394531 84.984375 C 43.339844 84.972656 43.164063 84.964844 42.878906 84.964844 L 42.328125 84.964844 Z M 45.003906 86.664063 C 45.003906 86.152344 45.058594 85.71875 45.164063 85.371094 C 45.246094 85.113281 45.355469 84.882813 45.492188 84.679688 C 45.628906 84.472656 45.78125 84.324219 45.945313 84.222656 C 46.164063 84.089844 46.417969 84.023438 46.707031 84.023438 C 47.21875 84.023438 47.632813 84.253906 47.945313 84.714844 C 48.253906 85.179688 48.410156 85.820313 48.410156 86.640625 C 48.410156 87.457031 48.253906 88.09375 47.945313 88.554688 C 47.640625 89.015625 47.226563 89.246094 46.714844 89.246094 C 46.191406 89.246094 45.773438 89.015625 45.46875 88.558594 C 45.160156 88.101563 45.003906 87.46875 45.003906 86.664063 Z M 45.734375 86.628906 C 45.734375 87.203125 45.832031 87.636719 46.011719 87.929688 C 46.195313 88.226563 46.429688 88.371094 46.714844 88.371094 C 46.992188 88.371094 47.226563 88.226563 47.40625 87.933594 C 47.589844 87.640625 47.679688 87.203125 47.679688 86.617188 C 47.679688 86.039063 47.589844 85.605469 47.414063 85.324219 C 47.238281 85.039063 47.003906 84.894531 46.714844 84.894531 C 46.417969 84.894531 46.183594 85.039063 46.003906 85.328125 C 45.828125 85.617188 45.734375 86.050781 45.734375 86.628906 Z M 48.964844 84.113281 L 49.671875 84.113281 L 49.671875 86.84375 C 49.671875 87.28125 49.679688 87.558594 49.703125 87.6875 C 49.730469 87.894531 49.800781 88.0625 49.914063 88.183594 C 50.027344 88.308594 50.179688 88.371094 50.378906 88.371094 C 50.578125 88.371094 50.726563 88.3125 50.832031 88.195313 C 50.925781 88.078125 50.988281 87.933594 51.007813 87.761719 C 51.027344 87.585938 51.039063 87.304688 51.039063 86.902344 L 51.039063 84.113281 L 51.753906 84.113281 L 51.753906 86.765625 C 51.753906 87.371094 51.730469 87.796875 51.691406 88.046875 C 51.65625 88.296875 51.589844 88.507813 51.480469 88.679688 C 51.378906 88.851563 51.242188 88.988281 51.070313 89.089844 C 50.898438 89.195313 50.675781 89.246094 50.398438 89.246094 C 50.0625 89.246094 49.8125 89.191406 49.636719 89.078125 C 49.464844 88.96875 49.332031 88.824219 49.230469 88.644531 C 49.128906 88.464844 49.0625 88.28125 49.03125 88.085938 C 48.984375 87.796875 48.964844 87.371094 48.964844 86.804688 Z M 54.132813 87.304688 L 54.132813 86.453125 L 55.65625 86.453125 L 55.65625 88.460938 C 55.507813 88.667969 55.292969 88.851563 55.011719 89.007813 C 54.730469 89.167969 54.445313 89.246094 54.15625 89.246094 C 53.789063 89.246094 53.46875 89.136719 53.203125 88.914063 C 52.925781 88.691406 52.71875 88.375 52.585938 87.960938 C 52.445313 87.550781 52.378906 87.101563 52.378906 86.617188 C 52.378906 86.089844 52.457031 85.625 52.605469 85.214844 C 52.761719 84.808594 52.984375 84.492188 53.277344 84.273438 C 53.503906 84.105469 53.785156 84.023438 54.117188 84.023438 C 54.554688 84.023438 54.894531 84.15625 55.140625 84.417969 C 55.382813 84.683594 55.539063 85.042969 55.609375 85.507813 L 54.90625 85.699219 C 54.855469 85.449219 54.761719 85.253906 54.628906 85.109375 C 54.492188 84.96875 54.320313 84.894531 54.117188 84.894531 C 53.808594 84.894531 53.5625 85.035156 53.382813 85.320313 C 53.203125 85.601563 53.109375 86.019531 53.109375 86.574219 C 53.109375 87.175781 53.203125 87.625 53.382813 87.921875 C 53.570313 88.222656 53.8125 88.371094 54.109375 88.371094 C 54.257813 88.371094 54.40625 88.332031 54.554688 88.246094 C 54.710938 88.164063 54.835938 88.0625 54.941406 87.941406 L 54.941406 87.304688 Z M 56.3125 89.152344 L 56.3125 84.113281 L 57.019531 84.113281 L 57.019531 86.097656 L 58.402344 86.097656 L 58.402344 84.113281 L 59.113281 84.113281 L 59.113281 89.152344 L 58.402344 89.152344 L 58.402344 86.949219 L 57.019531 86.949219 L 57.019531 89.152344 Z M 61.21875 89.152344 L 61.21875 84.113281 L 61.929688 84.113281 L 61.929688 86.347656 L 63.359375 84.113281 L 64.3125 84.113281 L 62.988281 86.078125 L 64.382813 89.152344 L 63.464844 89.152344 L 62.503906 86.789063 L 61.929688 87.628906 L 61.929688 89.152344 Z M 64.746094 89.152344 L 64.746094 84.113281 L 65.433594 84.113281 L 66.878906 87.492188 L 66.878906 84.113281 L 67.535156 84.113281 L 67.535156 89.152344 L 66.828125 89.152344 L 65.402344 85.839844 L 65.402344 89.152344 Z M 68.136719 86.664063 C 68.136719 86.152344 68.191406 85.71875 68.300781 85.371094 C 68.378906 85.113281 68.488281 84.882813 68.628906 84.679688 C 68.765625 84.472656 68.914063 84.324219 69.082031 84.222656 C 69.296875 84.089844 69.550781 84.023438 69.839844 84.023438 C 70.355469 84.023438 70.765625 84.253906 71.082031 84.714844 C 71.386719 85.179688 71.542969 85.820313 71.542969 86.640625 C 71.542969 87.457031 71.390625 88.09375 71.085938 88.554688 C 70.773438 89.015625 70.359375 89.246094 69.847656 89.246094 C 69.328125 89.246094 68.910156 89.015625 68.601563 88.558594 C 68.292969 88.101563 68.136719 87.46875 68.136719 86.664063 Z M 68.867188 86.628906 C 68.867188 87.203125 68.964844 87.636719 69.144531 87.929688 C 69.332031 88.226563 69.5625 88.371094 69.84375 88.371094 C 70.128906 88.371094 70.359375 88.226563 70.542969 87.933594 C 70.722656 87.640625 70.8125 87.203125 70.8125 86.617188 C 70.8125 86.039063 70.726563 85.605469 70.546875 85.324219 C 70.371094 85.039063 70.136719 84.894531 69.84375 84.894531 C 69.550781 84.894531 69.316406 85.039063 69.136719 85.328125 C 68.960938 85.617188 68.867188 86.050781 68.867188 86.628906 Z M 72.582031 89.152344 L 71.753906 84.113281 L 72.484375 84.113281 L 73.003906 87.578125 L 73.644531 84.113281 L 74.488281 84.113281 L 75.101563 87.636719 L 75.636719 84.113281 L 76.347656 84.113281 L 75.503906 89.152344 L 74.746094 89.152344 L 74.054688 85.386719 L 73.355469 89.152344 Z M 76.738281 89.152344 L 76.738281 84.15625 L 77.453125 84.15625 L 77.453125 88.300781 L 79.210938 88.300781 L 79.210938 89.152344 Z M 79.714844 89.152344 L 79.714844 84.113281 L 82.308594 84.113281 L 82.308594 84.964844 L 80.421875 84.964844 L 80.421875 86.085938 L 82.175781 86.085938 L 82.175781 86.9375 L 80.421875 86.9375 L 80.421875 88.300781 L 82.378906 88.300781 L 82.378906 89.152344 Z M 82.980469 84.113281 L 84.273438 84.113281 C 84.5625 84.113281 84.785156 84.148438 84.9375 84.210938 C 85.144531 84.296875 85.320313 84.453125 85.464844 84.675781 C 85.613281 84.898438 85.722656 85.167969 85.800781 85.492188 C 85.878906 85.8125 85.914063 86.210938 85.914063 86.683594 C 85.914063 87.097656 85.878906 87.453125 85.804688 87.753906 C 85.71875 88.121094 85.59375 88.417969 85.433594 88.644531 C 85.308594 88.816406 85.144531 88.949219 84.933594 89.046875 C 84.78125 89.117188 84.570313 89.152344 84.308594 89.152344 L 82.980469 89.152344 Z M 83.691406 84.964844 L 83.691406 88.300781 L 84.21875 88.300781 C 84.414063 88.300781 84.554688 88.285156 84.644531 88.253906 C 84.757813 88.214844 84.851563 88.140625 84.929688 88.042969 C 85.003906 87.945313 85.066406 87.785156 85.113281 87.558594 C 85.160156 87.332031 85.183594 87.023438 85.183594 86.636719 C 85.183594 86.246094 85.160156 85.949219 85.113281 85.738281 C 85.066406 85.53125 85.003906 85.367188 84.914063 85.25 C 84.832031 85.136719 84.71875 85.054688 84.589844 85.015625 C 84.488281 84.984375 84.292969 84.964844 84.007813 84.964844 Z M 88.148438 87.304688 L 88.148438 86.453125 L 89.671875 86.453125 L 89.671875 88.460938 C 89.523438 88.667969 89.308594 88.851563 89.027344 89.007813 C 88.746094 89.167969 88.464844 89.246094 88.171875 89.246094 C 87.808594 89.246094 87.488281 89.136719 87.214844 88.914063 C 86.941406 88.691406 86.738281 88.375 86.601563 87.960938 C 86.464844 87.550781 86.394531 87.101563 86.394531 86.617188 C 86.394531 86.089844 86.472656 85.625 86.628906 85.214844 C 86.777344 84.808594 87.003906 84.492188 87.296875 84.273438 C 87.523438 84.105469 87.800781 84.023438 88.136719 84.023438 C 88.570313 84.023438 88.910156 84.15625 89.15625 84.417969 C 89.402344 84.683594 89.558594 85.042969 89.628906 85.507813 L 88.921875 85.699219 C 88.878906 85.449219 88.78125 85.253906 88.644531 85.109375 C 88.507813 84.96875 88.339844 84.894531 88.136719 84.894531 C 87.832031 84.894531 87.585938 85.035156 87.398438 85.320313 C 87.214844 85.601563 87.128906 86.019531 87.128906 86.574219 C 87.128906 87.175781 87.21875 87.625 87.402344 87.921875 C 87.589844 88.222656 87.832031 88.371094 88.128906 88.371094 C 88.277344 88.371094 88.425781 88.332031 88.578125 88.246094 C 88.722656 88.164063 88.851563 88.0625 88.960938 87.941406 L 88.960938 87.304688 Z M 90.332031 89.152344 L 90.332031 84.113281 L 92.925781 84.113281 L 92.925781 84.964844 L 91.039063 84.964844 L 91.039063 86.085938 L 92.792969 86.085938 L 92.792969 86.9375 L 91.039063 86.9375 L 91.039063 88.300781 L 92.992188 88.300781 L 92.992188 89.152344 Z M 90.332031 89.152344 "/>
<path style=" stroke:none;fill-rule:evenodd;fill:rgb(61.131287%,6.665039%,8.616638%);fill-opacity:1;" d="M 29.386719 26.890625 L 28.765625 27.59375 L 27.785156 27.222656 L 26.648438 28.515625 L 27.144531 29.429688 L 26.535156 30.121094 L 24.417969 26.027344 L 25.023438 25.339844 Z M 27.054688 26.957031 L 25.46875 26.351563 L 26.277344 27.839844 Z M 29.757813 26.59375 L 26.941406 23.347656 L 27.582031 22.796875 L 30.800781 23.8125 L 28.914063 21.636719 L 29.519531 21.113281 L 32.339844 24.355469 L 31.679688 24.925781 L 28.515625 23.933594 L 30.367188 26.066406 Z M 33.121094 23.84375 L 30.988281 20.113281 L 31.71875 19.695313 L 34.683594 21.316406 L 33.253906 18.816406 L 33.957031 18.417969 L 36.089844 22.148438 L 35.335938 22.578125 L 32.417969 20.992188 L 33.820313 23.445313 Z M 40.515625 20.3125 L 39.648438 20.671875 L 38.933594 19.910156 L 37.339844 20.570313 L 37.382813 21.609375 L 36.535156 21.960938 L 36.433594 17.351563 L 37.28125 17 Z M 38.394531 19.347656 L 37.234375 18.105469 L 37.304688 19.796875 Z M 41.691406 15.546875 L 42.550781 15.417969 L 42.894531 17.722656 C 42.953125 18.085938 42.996094 18.320313 43.03125 18.425781 C 43.09375 18.59375 43.207031 18.722656 43.355469 18.808594 C 43.507813 18.890625 43.707031 18.917969 43.9375 18.882813 C 44.179688 18.84375 44.355469 18.769531 44.464844 18.652344 C 44.570313 18.53125 44.628906 18.402344 44.628906 18.25 C 44.632813 18.101563 44.609375 17.859375 44.558594 17.523438 L 44.210938 15.171875 L 45.066406 15.042969 L 45.402344 17.277344 C 45.476563 17.789063 45.507813 18.152344 45.492188 18.371094 C 45.476563 18.585938 45.417969 18.777344 45.316406 18.941406 C 45.214844 19.105469 45.066406 19.246094 44.871094 19.363281 C 44.675781 19.480469 44.410156 19.5625 44.078125 19.613281 C 43.671875 19.675781 43.355469 19.671875 43.132813 19.609375 C 42.910156 19.546875 42.726563 19.449219 42.589844 19.320313 C 42.441406 19.1875 42.339844 19.042969 42.273438 18.882813 C 42.179688 18.648438 42.101563 18.292969 42.03125 17.816406 Z M 46.660156 19.128906 L 46.539063 14.832031 L 47.378906 14.808594 L 49.230469 17.636719 L 49.148438 14.757813 L 49.957031 14.734375 L 50.078125 19.03125 L 49.210938 19.054688 L 47.386719 16.28125 L 47.464844 19.105469 Z M 50.964844 19.117188 L 51.351563 14.839844 L 52.21875 14.917969 L 51.835938 19.195313 Z M 53.742188 19.429688 L 52.867188 14.953125 L 53.796875 15.09375 L 54.398438 18.398438 L 55.910156 15.414063 L 56.828125 15.550781 L 54.671875 19.570313 Z M 56.585938 19.882813 L 57.976563 15.820313 L 60.984375 16.851563 L 60.746094 17.539063 L 58.5625 16.789063 L 58.253906 17.691406 L 60.285156 18.386719 L 60.050781 19.074219 L 58.015625 18.378906 L 57.640625 19.480469 L 59.902344 20.257813 L 59.667969 20.941406 Z M 60.382813 21.191406 L 62.265625 17.332031 L 63.90625 18.132813 C 64.320313 18.332031 64.601563 18.515625 64.757813 18.675781 C 64.910156 18.835938 65.003906 19.03125 65.027344 19.265625 C 65.050781 19.496094 65.007813 19.726563 64.898438 19.957031 C 64.757813 20.246094 64.554688 20.441406 64.292969 20.550781 C 64.03125 20.65625 63.71875 20.648438 63.359375 20.535156 C 63.476563 20.714844 63.5625 20.890625 63.617188 21.0625 C 63.667969 21.230469 63.714844 21.511719 63.753906 21.902344 L 63.855469 22.886719 L 62.921875 22.433594 L 62.773438 21.316406 C 62.722656 20.917969 62.675781 20.664063 62.640625 20.546875 C 62.601563 20.4375 62.550781 20.34375 62.484375 20.273438 C 62.414063 20.207031 62.289063 20.125 62.109375 20.039063 L 61.953125 19.960938 L 61.164063 21.574219 Z M 62.253906 19.347656 L 62.832031 19.628906 C 63.207031 19.8125 63.441406 19.910156 63.550781 19.921875 C 63.660156 19.9375 63.757813 19.917969 63.847656 19.867188 C 63.941406 19.8125 64.011719 19.730469 64.070313 19.613281 C 64.132813 19.484375 64.148438 19.363281 64.121094 19.246094 C 64.089844 19.132813 64.015625 19.035156 63.898438 18.953125 C 63.839844 18.914063 63.652344 18.816406 63.339844 18.664063 L 62.730469 18.367188 Z M 64.839844 21.8125 L 65.59375 22.203125 C 65.480469 22.46875 65.457031 22.699219 65.511719 22.894531 C 65.566406 23.089844 65.710938 23.261719 65.925781 23.402344 C 66.15625 23.554688 66.367188 23.621094 66.546875 23.601563 C 66.730469 23.578125 66.867188 23.503906 66.957031 23.371094 C 67.007813 23.285156 67.03125 23.195313 67.019531 23.105469 C 67.011719 23.011719 66.960938 22.902344 66.863281 22.777344 C 66.796875 22.695313 66.640625 22.515625 66.386719 22.242188 C 66.0625 21.894531 65.867188 21.597656 65.804688 21.351563 C 65.714844 21.007813 65.761719 20.695313 65.953125 20.410156 C 66.070313 20.226563 66.234375 20.089844 66.441406 19.996094 C 66.652344 19.90625 66.878906 19.882813 67.128906 19.925781 C 67.378906 19.96875 67.640625 20.082031 67.917969 20.261719 C 68.367188 20.554688 68.640625 20.878906 68.734375 21.226563 C 68.835938 21.574219 68.777344 21.917969 68.570313 22.257813 L 67.828125 21.808594 C 67.917969 21.601563 67.9375 21.425781 67.890625 21.277344 C 67.839844 21.132813 67.714844 20.988281 67.511719 20.859375 C 67.304688 20.722656 67.109375 20.65625 66.9375 20.667969 C 66.828125 20.671875 66.734375 20.722656 66.675781 20.816406 C 66.617188 20.902344 66.609375 20.996094 66.640625 21.105469 C 66.679688 21.242188 66.847656 21.46875 67.148438 21.78125 C 67.445313 22.09375 67.648438 22.351563 67.757813 22.550781 C 67.867188 22.753906 67.921875 22.960938 67.914063 23.175781 C 67.910156 23.394531 67.835938 23.617188 67.683594 23.84375 C 67.546875 24.046875 67.363281 24.203125 67.132813 24.308594 C 66.902344 24.414063 66.652344 24.441406 66.386719 24.390625 C 66.117188 24.34375 65.832031 24.214844 65.515625 24.011719 C 65.0625 23.714844 64.78125 23.382813 64.675781 23.011719 C 64.570313 22.644531 64.628906 22.242188 64.839844 21.8125 Z M 67.492188 25.40625 L 70.289063 22.144531 L 70.953125 22.710938 L 68.152344 25.972656 Z M 69.496094 27.140625 L 71.988281 24.585938 L 71.082031 23.699219 L 71.589844 23.179688 L 74.023438 25.558594 L 73.515625 26.078125 L 72.613281 25.195313 L 70.117188 27.75 Z M 72.246094 30.195313 L 73.902344 28.894531 L 75.050781 25.65625 L 75.78125 26.585938 L 74.957031 28.746094 L 77.226563 28.425781 L 77.953125 29.339844 L 74.523438 29.695313 L 72.871094 30.996094 Z M 72.246094 30.195313 "/>
<use xlink:href="#image5" transform="matrix(0.029569,0,0,0.029569,37.1192,52.7472)"/>
<g clip-path="url(#clip3)" clip-rule="nonzero">
<g clip-path="url(#clip4)" clip-rule="nonzero">
<g clip-path="url(#clip5)" clip-rule="nonzero">
<use xlink:href="#image8" transform="matrix(0.1,0,0,-0.1,38.9,66.5)"/>
</g>
</g>
</g>
<path style=" stroke:none;fill-rule:evenodd;fill:rgb(61.131287%,6.665039%,8.616638%);fill-opacity:1;" d="M 59.835938 66.371094 C 59.835938 66.292969 59.105469 54.589844 59.046875 54.523438 C 58.878906 54.34375 57.347656 54.375 56.140625 54.410156 C 55.738281 54.421875 49.3125 62.902344 49.3125 62.902344 L 49.175781 66.121094 L 49.347656 66.371094 L 53.984375 66.4375 L 59.441406 66.4375 Z M 59.835938 66.371094 "/>
<path style=" stroke:none;fill-rule:evenodd;fill:rgb(61.131287%,6.665039%,8.616638%);fill-opacity:1;" d="M 49.175781 66.121094 C 49.175781 66.121094 49.3125 66.046875 49.515625 66.121094 C 49.71875 66.191406 49.390625 66.324219 50.605469 66.324219 C 51.828125 66.324219 59.8125 66.324219 59.8125 66.324219 C 59.8125 66.324219 59.878906 66.382813 59.769531 66.449219 C 59.632813 66.535156 59.121094 66.53125 59.121094 66.53125 L 49.175781 66.535156 Z M 49.175781 66.121094 "/>
<path style=" stroke:none;fill-rule:evenodd;fill:rgb(61.131287%,6.665039%,8.616638%);fill-opacity:1;" d="M 38.542969 66.371094 C 38.542969 66.292969 39.265625 54.589844 39.332031 54.523438 C 39.492188 54.34375 41.023438 54.375 42.234375 54.410156 C 42.632813 54.421875 49.058594 62.902344 49.058594 62.902344 L 49.195313 66.121094 L 49.027344 66.371094 L 44.390625 66.4375 L 38.929688 66.4375 Z M 38.542969 66.371094 "/>
<path style=" stroke:none;fill-rule:evenodd;fill:rgb(61.131287%,6.665039%,8.616638%);fill-opacity:1;" d="M 49.195313 66.121094 C 49.195313 66.121094 49.058594 66.046875 48.859375 66.121094 C 48.65625 66.191406 48.980469 66.324219 47.765625 66.324219 C 46.550781 66.324219 38.558594 66.324219 38.558594 66.324219 C 38.558594 66.324219 38.496094 66.382813 38.601563 66.449219 C 38.738281 66.535156 39.253906 66.53125 39.253906 66.53125 L 49.195313 66.535156 Z M 49.195313 66.121094 "/>
<use xlink:href="#image11" transform="matrix(0.0295692,0,0,0.0295691,49.0651,53.6047)"/>
<path style=" stroke:none;fill-rule:evenodd;fill:rgb(83.59375%,47.459412%,47.459412%);fill-opacity:1;" d="M 54.453125 54.027344 C 51.3125 52.832031 49.152344 55.054688 49.152344 55.054688 L 49.152344 65.925781 C 49.152344 65.925781 51.308594 64.101563 54.453125 65.289063 C 57.964844 66.613281 59.21875 65.925781 59.21875 65.925781 L 58.558594 55.054688 C 58.558594 55.054688 58.191406 55.453125 54.453125 54.027344 Z M 54.453125 54.027344 "/>
<use xlink:href="#image14" transform="matrix(0.0295689,0,0,0.0295689,49.0651,53.5456)"/>
<path style=" stroke:none;fill-rule:evenodd;fill:rgb(83.59375%,47.459412%,47.459412%);fill-opacity:1;" d="M 54.453125 53.960938 C 51.3125 52.765625 49.152344 54.988281 49.152344 54.988281 L 49.152344 65.910156 C 49.152344 65.910156 51.308594 64.035156 54.453125 65.222656 C 57.964844 66.546875 59.21875 65.910156 59.21875 65.910156 L 58.558594 54.988281 C 58.558594 54.988281 58.191406 55.386719 54.453125 53.960938 Z M 54.453125 53.960938 "/>
<use xlink:href="#image17" transform="matrix(0.0295692,0,0,0.0295691,49.0651,53.4569)"/>
<path style=" stroke:none;fill-rule:evenodd;fill:rgb(83.59375%,47.459412%,47.459412%);fill-opacity:1;" d="M 54.453125 53.894531 C 51.3125 52.703125 49.152344 54.921875 49.152344 54.921875 L 49.152344 65.898438 C 49.152344 65.898438 51.308594 63.96875 54.453125 65.15625 C 57.964844 66.480469 59.21875 65.898438 59.21875 65.898438 L 58.558594 54.921875 C 58.558594 54.921875 58.191406 55.320313 54.453125 53.894531 Z M 54.453125 53.894531 "/>
<use xlink:href="#image20" transform="matrix(0.0295692,0,0,0.0295691,49.0651,53.3977)"/>
<path style=" stroke:none;fill-rule:evenodd;fill:rgb(83.59375%,47.459412%,47.459412%);fill-opacity:1;" d="M 54.453125 53.828125 C 51.3125 52.636719 49.152344 54.855469 49.152344 54.855469 L 49.152344 65.882813 C 49.152344 65.882813 51.308594 63.902344 54.453125 65.089844 C 57.964844 66.414063 59.21875 65.882813 59.21875 65.882813 L 58.558594 54.855469 C 58.558594 54.855469 58.191406 55.253906 54.453125 53.828125 Z M 54.453125 53.828125 "/>
<use xlink:href="#image23" transform="matrix(0.0295689,0,0,0.0295689,49.0651,53.3386)"/>
<path style=" stroke:none;fill-rule:evenodd;fill:rgb(83.59375%,47.459412%,47.459412%);fill-opacity:1;" d="M 54.453125 53.761719 C 51.3125 52.570313 49.152344 54.789063 49.152344 54.789063 L 49.152344 65.871094 C 49.152344 65.871094 51.308594 63.835938 54.453125 65.023438 C 57.964844 66.347656 59.21875 65.871094 59.21875 65.871094 L 58.558594 54.789063 C 58.558594 54.789063 58.191406 55.1875 54.453125 53.761719 Z M 54.453125 53.761719 "/>
<use xlink:href="#image26" transform="matrix(0.0295689,0,0,0.029569,49.0651,53.2795)"/>
<path style=" stroke:none;fill-rule:evenodd;fill:rgb(83.59375%,47.459412%,47.459412%);fill-opacity:1;" d="M 54.453125 53.695313 C 51.3125 52.503906 49.152344 54.722656 49.152344 54.722656 L 49.152344 65.859375 C 49.152344 65.859375 51.308594 63.769531 54.453125 64.957031 C 57.964844 66.28125 59.21875 65.859375 59.21875 65.859375 L 58.558594 54.722656 C 58.558594 54.722656 58.191406 55.121094 54.453125 53.695313 Z M 54.453125 53.695313 "/>
<use xlink:href="#image29" transform="matrix(0.0295692,0,0,0.0295691,49.0651,53.1908)"/>
<path style=" stroke:none;fill-rule:evenodd;fill:rgb(83.59375%,47.459412%,47.459412%);fill-opacity:1;" d="M 54.453125 53.628906 C 51.3125 52.4375 49.152344 54.65625 49.152344 54.65625 L 49.152344 65.84375 C 49.152344 65.84375 51.308594 63.703125 54.453125 64.890625 C 57.964844 66.214844 59.21875 65.84375 59.21875 65.84375 L 58.558594 54.65625 C 58.558594 54.65625 58.191406 55.054688 54.453125 53.628906 Z M 54.453125 53.628906 "/>
<path style=" stroke:none;fill-rule:evenodd;fill:rgb(92.576599%,92.576599%,92.96875%);fill-opacity:1;" d="M 54.609375 53.6875 C 51.46875 52.507813 49.308594 54.703125 49.308594 54.703125 L 49.308594 65.851563 C 49.308594 65.851563 51.464844 63.660156 54.609375 64.835938 C 58.117188 66.144531 59.378906 65.851563 59.378906 65.851563 L 58.714844 54.703125 C 58.714844 54.703125 58.351563 55.097656 54.609375 53.6875 Z M 54.609375 53.6875 "/>
<use xlink:href="#image32" transform="matrix(0.0295692,0,0,0.0295691,38.9821,53.6047)"/>
<path style=" stroke:none;fill-rule:evenodd;fill:rgb(92.96875%,52.929688%,52.929688%);fill-opacity:1;" d="M 43.855469 54.027344 C 46.992188 52.832031 49.152344 55.054688 49.152344 55.054688 L 49.152344 65.925781 C 49.152344 65.925781 46.996094 64.101563 43.855469 65.289063 C 40.34375 66.613281 39.089844 65.925781 39.089844 65.925781 L 39.746094 55.054688 C 39.746094 55.054688 40.109375 55.453125 43.855469 54.027344 Z M 43.855469 54.027344 "/>
<use xlink:href="#image35" transform="matrix(0.0295689,0,0,0.0295689,38.9821,53.5456)"/>
<path style=" stroke:none;fill-rule:evenodd;fill:rgb(92.96875%,52.929688%,52.929688%);fill-opacity:1;" d="M 43.855469 53.960938 C 46.992188 52.765625 49.152344 54.988281 49.152344 54.988281 L 49.152344 65.910156 C 49.152344 65.910156 46.996094 64.035156 43.855469 65.222656 C 40.34375 66.546875 39.089844 65.910156 39.089844 65.910156 L 39.746094 54.988281 C 39.746094 54.988281 40.109375 55.386719 43.855469 53.960938 Z M 43.855469 53.960938 "/>
<use xlink:href="#image38" transform="matrix(0.0295692,0,0,0.0295691,38.9821,53.4569)"/>
<path style=" stroke:none;fill-rule:evenodd;fill:rgb(92.96875%,52.929688%,52.929688%);fill-opacity:1;" d="M 43.855469 53.894531 C 46.992188 52.703125 49.152344 54.921875 49.152344 54.921875 L 49.152344 65.898438 C 49.152344 65.898438 46.996094 63.96875 43.855469 65.15625 C 40.34375 66.480469 39.089844 65.898438 39.089844 65.898438 L 39.746094 54.921875 C 39.746094 54.921875 40.109375 55.320313 43.855469 53.894531 Z M 43.855469 53.894531 "/>
<use xlink:href="#image41" transform="matrix(0.0295692,0,0,0.0295691,38.9821,53.3977)"/>
<path style=" stroke:none;fill-rule:evenodd;fill:rgb(92.96875%,52.929688%,52.929688%);fill-opacity:1;" d="M 43.855469 53.828125 C 46.992188 52.636719 49.152344 54.855469 49.152344 54.855469 L 49.152344 65.882813 C 49.152344 65.882813 46.996094 63.902344 43.855469 65.089844 C 40.34375 66.414063 39.089844 65.882813 39.089844 65.882813 L 39.746094 54.855469 C 39.746094 54.855469 40.109375 55.253906 43.855469 53.828125 Z M 43.855469 53.828125 "/>
<use xlink:href="#image44" transform="matrix(0.0295689,0,0,0.0295689,38.9821,53.3386)"/>
<path style=" stroke:none;fill-rule:evenodd;fill:rgb(92.96875%,52.929688%,52.929688%);fill-opacity:1;" d="M 43.855469 53.761719 C 46.992188 52.570313 49.152344 54.789063 49.152344 54.789063 L 49.152344 65.871094 C 49.152344 65.871094 46.996094 63.835938 43.855469 65.023438 C 40.34375 66.347656 39.089844 65.871094 39.089844 65.871094 L 39.746094 54.789063 C 39.746094 54.789063 40.109375 55.1875 43.855469 53.761719 Z M 43.855469 53.761719 "/>
<use xlink:href="#image47" transform="matrix(0.0295689,0,0,0.029569,38.9821,53.2795)"/>
<path style=" stroke:none;fill-rule:evenodd;fill:rgb(92.96875%,52.929688%,52.929688%);fill-opacity:1;" d="M 43.855469 53.695313 C 46.992188 52.503906 49.152344 54.722656 49.152344 54.722656 L 49.152344 65.859375 C 49.152344 65.859375 46.996094 63.769531 43.855469 64.957031 C 40.34375 66.28125 39.089844 65.859375 39.089844 65.859375 L 39.746094 54.722656 C 39.746094 54.722656 40.109375 55.121094 43.855469 53.695313 Z M 43.855469 53.695313 "/>
<use xlink:href="#image50" transform="matrix(0.0295692,0,0,0.0295691,38.9821,53.1908)"/>
<path style=" stroke:none;fill-rule:evenodd;fill:rgb(92.96875%,52.929688%,52.929688%);fill-opacity:1;" d="M 43.855469 53.628906 C 46.992188 52.4375 49.152344 54.65625 49.152344 54.65625 L 49.152344 65.84375 C 49.152344 65.84375 46.996094 63.703125 43.855469 64.890625 C 40.34375 66.214844 39.089844 65.84375 39.089844 65.84375 L 39.746094 54.65625 C 39.746094 54.65625 40.109375 55.054688 43.855469 53.628906 Z M 43.855469 53.628906 "/>
<path style=" stroke:none;fill-rule:evenodd;fill:rgb(92.576599%,92.576599%,92.96875%);fill-opacity:1;" d="M 43.710938 53.6875 C 46.847656 52.507813 49.007813 54.703125 49.007813 54.703125 L 49.007813 65.851563 C 49.007813 65.851563 46.851563 63.660156 43.710938 64.835938 C 40.203125 66.144531 38.9375 65.851563 38.9375 65.851563 L 39.601563 54.703125 C 39.601563 54.703125 39.964844 55.097656 43.710938 53.6875 Z M 43.710938 53.6875 "/>
<path style="fill:none;stroke-width:2.835;stroke-linecap:butt;stroke-linejoin:miter;stroke:rgb(61.131287%,6.665039%,8.616638%);stroke-opacity:1;stroke-miterlimit:4;" d="M 400.15625 291.695313 C 441.328125 293.21875 445.46875 315.132813 479.375 293.21875 " transform="matrix(0.1,0,0,-0.1,0,93.4)"/>
<path style="fill:none;stroke-width:2.835;stroke-linecap:butt;stroke-linejoin:miter;stroke:rgb(61.131287%,6.665039%,8.616638%);stroke-opacity:1;stroke-miterlimit:4;" d="M 400.15625 303.023438 C 441.328125 304.546875 445.46875 326.460938 479.375 304.546875 " transform="matrix(0.1,0,0,-0.1,0,93.4)"/>
<path style="fill:none;stroke-width:2.835;stroke-linecap:butt;stroke-linejoin:miter;stroke:rgb(61.131287%,6.665039%,8.616638%);stroke-opacity:1;stroke-miterlimit:4;" d="M 400.15625 314.351563 C 441.328125 315.875 445.46875 337.789063 479.375 315.875 " transform="matrix(0.1,0,0,-0.1,0,93.4)"/>
<path style="fill:none;stroke-width:2.835;stroke-linecap:butt;stroke-linejoin:miter;stroke:rgb(61.131287%,6.665039%,8.616638%);stroke-opacity:1;stroke-miterlimit:4;" d="M 400.15625 337.046875 C 441.328125 338.570313 445.46875 360.484375 479.375 338.570313 " transform="matrix(0.1,0,0,-0.1,0,93.4)"/>
<path style="fill:none;stroke-width:2.835;stroke-linecap:butt;stroke-linejoin:miter;stroke:rgb(61.131287%,6.665039%,8.616638%);stroke-opacity:1;stroke-miterlimit:4;" d="M 400.15625 325.71875 C 441.328125 327.242188 445.46875 349.117188 479.375 327.242188 " transform="matrix(0.1,0,0,-0.1,0,93.4)"/>
<path style="fill:none;stroke-width:2.835;stroke-linecap:butt;stroke-linejoin:miter;stroke:rgb(61.131287%,6.665039%,8.616638%);stroke-opacity:1;stroke-miterlimit:4;" d="M 401.796875 349.3125 C 442.96875 350.835938 447.148438 372.710938 481.015625 350.835938 " transform="matrix(0.1,0,0,-0.1,0,93.4)"/>
<path style="fill:none;stroke-width:2.835;stroke-linecap:butt;stroke-linejoin:miter;stroke:rgb(61.131287%,6.665039%,8.616638%);stroke-opacity:1;stroke-miterlimit:4;" d="M 401.796875 371.96875 C 442.96875 373.492188 447.148438 395.40625 481.015625 373.492188 " transform="matrix(0.1,0,0,-0.1,0,93.4)"/>
<path style="fill:none;stroke-width:2.835;stroke-linecap:butt;stroke-linejoin:miter;stroke:rgb(61.131287%,6.665039%,8.616638%);stroke-opacity:1;stroke-miterlimit:4;" d="M 401.796875 360.640625 C 442.96875 362.164063 447.148438 384.078125 481.015625 362.164063 " transform="matrix(0.1,0,0,-0.1,0,93.4)"/>
<path style="fill:none;stroke-width:2.835;stroke-linecap:butt;stroke-linejoin:miter;stroke:rgb(61.131287%,6.665039%,8.616638%);stroke-opacity:1;stroke-miterlimit:4;" d="M 502.421875 293.414063 C 531.015625 315.328125 555.820313 282.4375 586.835938 290.835938 " transform="matrix(0.1,0,0,-0.1,0,93.4)"/>
<path style="fill:none;stroke-width:2.835;stroke-linecap:butt;stroke-linejoin:miter;stroke:rgb(61.131287%,6.665039%,8.616638%);stroke-opacity:1;stroke-miterlimit:4;" d="M 501.835938 305.757813 C 530.429688 327.710938 555.195313 294.820313 586.289063 303.179688 " transform="matrix(0.1,0,0,-0.1,0,93.4)"/>
<path style="fill:none;stroke-width:2.835;stroke-linecap:butt;stroke-linejoin:miter;stroke:rgb(61.131287%,6.665039%,8.616638%);stroke-opacity:1;stroke-miterlimit:4;" d="M 500.898438 316.539063 C 529.53125 338.492188 554.257813 305.601563 585.3125 313.960938 " transform="matrix(0.1,0,0,-0.1,0,93.4)"/>
<path style="fill:none;stroke-width:2.835;stroke-linecap:butt;stroke-linejoin:miter;stroke:rgb(61.131287%,6.665039%,8.616638%);stroke-opacity:1;stroke-miterlimit:4;" d="M 500.898438 327.90625 C 529.53125 349.820313 554.257813 316.929688 585.3125 325.328125 " transform="matrix(0.1,0,0,-0.1,0,93.4)"/>
<path style="fill:none;stroke-width:2.835;stroke-linecap:butt;stroke-linejoin:miter;stroke:rgb(61.131287%,6.665039%,8.616638%);stroke-opacity:1;stroke-miterlimit:4;" d="M 500.898438 342.046875 C 529.53125 364 554.257813 331.109375 585.3125 339.46875 " transform="matrix(0.1,0,0,-0.1,0,93.4)"/>
<path style="fill:none;stroke-width:2.835;stroke-linecap:butt;stroke-linejoin:miter;stroke:rgb(61.131287%,6.665039%,8.616638%);stroke-opacity:1;stroke-miterlimit:4;" d="M 500.898438 353.414063 C 529.53125 375.328125 554.257813 342.4375 585.3125 350.835938 " transform="matrix(0.1,0,0,-0.1,0,93.4)"/>
<path style="fill:none;stroke-width:2.835;stroke-linecap:butt;stroke-linejoin:miter;stroke:rgb(61.131287%,6.665039%,8.616638%);stroke-opacity:1;stroke-miterlimit:4;" d="M 500.898438 364.742188 C 529.53125 386.65625 554.257813 353.765625 585.3125 362.164063 " transform="matrix(0.1,0,0,-0.1,0,93.4)"/>
<path style="fill:none;stroke-width:2.835;stroke-linecap:butt;stroke-linejoin:miter;stroke:rgb(61.131287%,6.665039%,8.616638%);stroke-opacity:1;stroke-miterlimit:4;" d="M 500.898438 376.070313 C 529.53125 398.023438 554.257813 365.132813 585.3125 373.492188 " transform="matrix(0.1,0,0,-0.1,0,93.4)"/>
</g>
</svg>